# 3ds Max Wavefront OBJ Exporter v0.97b - (c)2007 guruware
# File Created: 15.05.2016 15:31:31

mtllib Data.mtl

#
# object Box001
#

v  8.939270 2.175854 0.000000
v  8.939270 37.315273 0.000000
v  36.183552 37.315273 0.000000
v  36.183552 2.175854 0.000000
v  8.939270 2.175854 25.516027
v  36.183552 2.175854 25.516027
v  36.183552 37.315273 25.516027
v  8.939270 37.315273 25.516027
# 8 vertices

vn 0.000000 0.000000 -1.000000
vn 0.000000 0.000000 1.000000
vn 0.000000 -1.000000 0.000000
vn 1.000000 0.000000 0.000000
vn 0.000000 1.000000 0.000000
vn -1.000000 0.000000 0.000000
# 6 vertex normals

vt 27.244282 0.000000 0.000000
vt 27.244282 35.139420 0.000000
vt 0.000000 35.139420 0.000000
vt 0.000000 0.000000 0.000000
vt 27.244282 25.516027 0.000000
vt 0.000000 25.516027 0.000000
vt 35.139420 0.000000 0.000000
vt 35.139420 25.516027 0.000000
# 8 texture coords

g Box001
usemtl wire_088144225
f -8/-8/-6 -7/-7/-6 -6/-6/-6 
f -6/-6/-6 -5/-5/-6 -8/-8/-6 
f -4/-5/-5 -3/-8/-5 -2/-7/-5 
f -2/-7/-5 -1/-6/-5 -4/-5/-5 
f -8/-5/-4 -5/-8/-4 -3/-4/-4 
f -3/-4/-4 -4/-3/-4 -8/-5/-4 
f -5/-5/-3 -6/-2/-3 -2/-1/-3 
f -2/-1/-3 -3/-3/-3 -5/-5/-3 
f -6/-5/-2 -7/-8/-2 -1/-4/-2 
f -1/-4/-2 -2/-3/-2 -6/-5/-2 
f -7/-5/-1 -8/-2/-1 -4/-1/-1 
f -4/-1/-1 -1/-3/-1 -7/-5/-1 
# 12 faces

